<svg width="618" height="178" viewBox="0 0 618 178" fill="none" xmlns="http://www.w3.org/2000/svg">
<mask id="path-1-inside-1_36_9" fill="white">
<path fill-rule="evenodd" clip-rule="evenodd" d="M90 177.994C89.6671 177.998 89.3338 178 89 178C39.8467 178 0 138.153 0 89C0 39.8467 39.8467 0 89 0C89.3338 0 89.6671 0.00183725 90 0.0055022V0H529C578.153 0 618 39.8467 618 89C618 138.153 578.153 178 529 178H90V177.994Z"/>
</mask>
<path fill-rule="evenodd" clip-rule="evenodd" d="M90 177.994C89.6671 177.998 89.3338 178 89 178C39.8467 178 0 138.153 0 89C0 39.8467 39.8467 0 89 0C89.3338 0 89.6671 0.00183725 90 0.0055022V0H529C578.153 0 618 39.8467 618 89C618 138.153 578.153 178 529 178H90V177.994Z" fill="#3F1278"/>
<path d="M90 177.994H96V171.928L89.934 171.995L90 177.994ZM90 0.0055022L89.9339 6.00514L96 6.07192V0.0055022H90ZM90 0V-6H84V0H90ZM90 178H84V184H90V178ZM89 184C89.3559 184 89.7112 183.998 90.066 183.994L89.934 171.995C89.623 171.998 89.3116 172 89 172V184ZM-6 89C-6 141.467 36.5329 184 89 184V172C43.1604 172 6 134.84 6 89H-6ZM89 -6C36.5329 -6 -6 36.5329 -6 89H6C6 43.1604 43.1604 6 89 6V-6ZM90.0661 -5.99413C89.7111 -5.99804 89.3558 -6 89 -6V6C89.3117 6 89.6231 6.00172 89.9339 6.00514L90.0661 -5.99413ZM96 0.0055022V0H84V0.0055022H96ZM90 6H529V-6H90V6ZM624 89C624 36.5329 581.467 -6 529 -6V6C574.84 6 612 43.1604 612 89H624ZM529 184C581.467 184 624 141.467 624 89H612C612 134.84 574.84 172 529 172V184ZM529 172H90V184H529V172ZM96 178V177.994H84V178H96Z" fill="#7000FF" mask="url(#path-1-inside-1_36_9)"/>
<path d="M123.077 112V65.28H136.325C140.592 65.28 143.92 66.3467 146.309 68.48C148.741 70.6133 149.957 73.5787 149.957 77.376C149.957 79.5093 149.509 81.3653 148.613 82.944C147.717 84.5227 146.437 85.7387 144.773 86.592C143.152 87.4453 141.189 87.8507 138.885 87.808V86.848C141.36 86.8053 143.493 87.2747 145.285 88.256C147.12 89.2373 148.528 90.6453 149.509 92.48C150.533 94.3147 151.045 96.4907 151.045 99.008C151.045 101.653 150.49 103.957 149.381 105.92C148.272 107.883 146.693 109.397 144.645 110.464C142.597 111.488 140.144 112 137.285 112H123.077ZM128.709 106.816H136.645C139.333 106.816 141.445 106.112 142.981 104.704C144.56 103.253 145.349 101.291 145.349 98.816C145.349 96.256 144.56 94.1867 142.981 92.608C141.445 90.9867 139.333 90.176 136.645 90.176H128.709V106.816ZM128.709 85.184H136.261C138.736 85.184 140.677 84.5227 142.085 83.2C143.536 81.8773 144.261 80.0853 144.261 77.824C144.261 75.5627 143.557 73.7707 142.149 72.448C140.741 71.1253 138.8 70.464 136.325 70.464H128.709V85.184ZM171.628 112.64C167.916 112.64 164.993 111.701 162.86 109.824C160.727 107.904 159.66 105.323 159.66 102.08C159.66 98.7947 160.727 96.2133 162.86 94.336C164.993 92.4587 167.873 91.52 171.5 91.52H182.38V88C182.38 85.824 181.719 84.16 180.396 83.008C179.116 81.8133 177.281 81.216 174.892 81.216C172.801 81.216 171.052 81.664 169.644 82.56C168.236 83.4133 167.425 84.5867 167.212 86.08H161.452C161.836 83.0507 163.265 80.64 165.74 78.848C168.215 77.056 171.308 76.16 175.02 76.16C179.073 76.16 182.273 77.2053 184.62 79.296C186.967 81.3867 188.14 84.224 188.14 87.808V112H182.508V105.28H181.548L182.508 104.32C182.508 106.88 181.505 108.907 179.5 110.4C177.537 111.893 174.913 112.64 171.628 112.64ZM173.036 108.096C175.767 108.096 178.007 107.413 179.756 106.048C181.505 104.683 182.38 102.933 182.38 100.8V95.808H171.628C169.708 95.808 168.193 96.3413 167.084 97.408C165.975 98.4747 165.42 99.9253 165.42 101.76C165.42 103.723 166.081 105.28 167.404 106.432C168.769 107.541 170.647 108.096 173.036 108.096ZM217.875 112C215.827 112 214.035 111.595 212.499 110.784C210.963 109.973 209.768 108.821 208.915 107.328C208.062 105.835 207.635 104.085 207.635 102.08V70.528H195.795V65.28H213.395V102.08C213.395 103.531 213.8 104.683 214.611 105.536C215.422 106.347 216.51 106.752 217.875 106.752H229.075V112H217.875ZM256.25 112C254.202 112 252.41 111.595 250.874 110.784C249.338 109.973 248.143 108.821 247.29 107.328C246.437 105.835 246.01 104.085 246.01 102.08V70.528H234.17V65.28H251.77V102.08C251.77 103.531 252.175 104.683 252.986 105.536C253.797 106.347 254.885 106.752 256.25 106.752H267.45V112H256.25ZM314.952 112V65.28H328.2C332.467 65.28 335.795 66.3467 338.184 68.48C340.616 70.6133 341.832 73.5787 341.832 77.376C341.832 79.5093 341.384 81.3653 340.488 82.944C339.592 84.5227 338.312 85.7387 336.648 86.592C335.027 87.4453 333.064 87.8507 330.76 87.808V86.848C333.235 86.8053 335.368 87.2747 337.16 88.256C338.995 89.2373 340.403 90.6453 341.384 92.48C342.408 94.3147 342.92 96.4907 342.92 99.008C342.92 101.653 342.365 103.957 341.256 105.92C340.147 107.883 338.568 109.397 336.52 110.464C334.472 111.488 332.019 112 329.16 112H314.952ZM320.584 106.816H328.52C331.208 106.816 333.32 106.112 334.856 104.704C336.435 103.253 337.224 101.291 337.224 98.816C337.224 96.256 336.435 94.1867 334.856 92.608C333.32 90.9867 331.208 90.176 328.52 90.176H320.584V106.816ZM320.584 85.184H328.136C330.611 85.184 332.552 84.5227 333.96 83.2C335.411 81.8773 336.136 80.0853 336.136 77.824C336.136 75.5627 335.432 73.7707 334.024 72.448C332.616 71.1253 330.675 70.464 328.2 70.464H320.584V85.184ZM366.575 112.512C363.759 112.512 361.327 111.979 359.279 110.912C357.231 109.845 355.631 108.309 354.479 106.304C353.37 104.256 352.815 101.845 352.815 99.072V89.728C352.815 86.912 353.37 84.5013 354.479 82.496C355.631 80.4907 357.231 78.9547 359.279 77.888C361.327 76.8213 363.759 76.288 366.575 76.288C369.391 76.288 371.823 76.8213 373.871 77.888C375.919 78.9547 377.498 80.4907 378.607 82.496C379.759 84.5013 380.335 86.8907 380.335 89.664V99.072C380.335 101.845 379.759 104.256 378.607 106.304C377.498 108.309 375.919 109.845 373.871 110.912C371.823 111.979 369.391 112.512 366.575 112.512ZM366.575 107.392C369.092 107.392 371.055 106.688 372.463 105.28C373.871 103.872 374.575 101.803 374.575 99.072V89.728C374.575 86.9973 373.871 84.928 372.463 83.52C371.055 82.112 369.092 81.408 366.575 81.408C364.1 81.408 362.138 82.112 360.687 83.52C359.279 84.928 358.575 86.9973 358.575 89.728V99.072C358.575 101.803 359.279 103.872 360.687 105.28C362.138 106.688 364.1 107.392 366.575 107.392ZM401.878 112.64C398.166 112.64 395.243 111.701 393.11 109.824C390.977 107.904 389.91 105.323 389.91 102.08C389.91 98.7947 390.977 96.2133 393.11 94.336C395.243 92.4587 398.123 91.52 401.75 91.52H412.63V88C412.63 85.824 411.969 84.16 410.646 83.008C409.366 81.8133 407.531 81.216 405.142 81.216C403.051 81.216 401.302 81.664 399.894 82.56C398.486 83.4133 397.675 84.5867 397.462 86.08H391.702C392.086 83.0507 393.515 80.64 395.99 78.848C398.465 77.056 401.558 76.16 405.27 76.16C409.323 76.16 412.523 77.2053 414.87 79.296C417.217 81.3867 418.39 84.224 418.39 87.808V112H412.758V105.28H411.798L412.758 104.32C412.758 106.88 411.755 108.907 409.75 110.4C407.787 111.893 405.163 112.64 401.878 112.64ZM403.286 108.096C406.017 108.096 408.257 107.413 410.006 106.048C411.755 104.683 412.63 102.933 412.63 100.8V95.808H401.878C399.958 95.808 398.443 96.3413 397.334 97.408C396.225 98.4747 395.67 99.9253 395.67 101.76C395.67 103.723 396.331 105.28 397.654 106.432C399.019 107.541 400.897 108.096 403.286 108.096ZM431.229 112V76.8H436.861V83.52H438.205L436.349 87.68C436.349 83.8827 437.16 81.024 438.781 79.104C440.445 77.1413 442.898 76.16 446.141 76.16C449.853 76.16 452.797 77.3333 454.973 79.68C457.192 81.984 458.301 85.12 458.301 89.088V91.2H452.541V89.6C452.541 86.8267 451.858 84.7147 450.493 83.264C449.17 81.7707 447.272 81.024 444.797 81.024C442.365 81.024 440.445 81.7707 439.037 83.264C437.672 84.7573 436.989 86.8693 436.989 89.6V112H431.229ZM479.652 112.64C476.153 112.64 473.316 111.467 471.14 109.12C469.007 106.773 467.94 103.595 467.94 99.584V89.28C467.94 85.2267 469.007 82.0267 471.14 79.68C473.273 77.3333 476.111 76.16 479.652 76.16C482.553 76.16 484.879 76.9493 486.628 78.528C488.377 80.1067 489.252 82.2187 489.252 84.864L488.1 83.52H489.38L489.252 75.52V65.28H495.012V112H489.252V105.28H488.1L489.252 103.936C489.252 106.624 488.377 108.757 486.628 110.336C484.879 111.872 482.553 112.64 479.652 112.64ZM481.572 107.648C483.961 107.648 485.839 106.901 487.204 105.408C488.569 103.915 489.252 101.845 489.252 99.2V89.6C489.252 86.9547 488.569 84.8853 487.204 83.392C485.839 81.8987 483.961 81.152 481.572 81.152C479.14 81.152 477.22 81.8773 475.812 83.328C474.404 84.7787 473.7 86.8693 473.7 89.6V99.2C473.7 101.931 474.404 104.021 475.812 105.472C477.22 106.923 479.14 107.648 481.572 107.648Z" fill="white"/>
</svg>
